#!OML:ASF H:\Dans Jumps\Project 1\Capture day 1\Session 1\subject.ASF
:FULLY-SPECIFIED
:DEGREES
574
root 0.84166 17.7267 6.38524 4.66866 -0.304894 -1.88512
lowerback -1.94914 -0.553893 -0.0721624
upperback 1.40713 -0.779532 1.80227
thorax 2.56309 -0.407455 1.85908
lowerneck -13.1839 -1.0366 -2.40415
upperneck 18.862 -1.0471 0.676053
head 8.02918 -0.602761 0.51122
rclavicle -6.78353e-015 -7.7526e-015
rhumerus -24.5821 -19.4814 -81.1162
rradius 22.1162
rwrist 36.5892
rhand -19.8977 -27.1985
rfingers 7.12502
rthumb 6.43859 -57.0807
lclavicle -6.78353e-015 -7.7526e-015
lhumerus -19.8239 7.70369 87.9857
lradius 13.4947
lwrist -4.81994
lhand -25.595 -5.40405
lfingers 7.12502
lthumb 0.9369 24.5736
rfemur -13.198 -1.4337 19.8543
rtibia 19.8809
rfoot -10.5925 0.587528
rtoes 17.83
lfemur -11.2353 7.03651 -17.7164
ltibia 18.4432
lfoot -9.58632 3.29656
ltoes -2.80287
575
root 0.842728 17.7262 6.38441 4.65516 -0.325171 -1.87515
lowerback -1.94515 -0.556951 -0.0869207
upperback 1.40528 -0.782979 1.79732
thorax 2.55919 -0.409369 1.86216
lowerneck -13.1973 -1.03145 -2.3966
upperneck 18.8964 -1.0412 0.674978
head 8.04294 -0.599695 0.510199
rclavicle -2.83268e-015 1.78906e-014
rhumerus -24.5453 -19.323 -81.2016
rradius 22.2015
rwrist 36.4248
rhand -19.9115 -27.1949
rfingers 7.12502
rthumb 6.42528 -57.0774
lclavicle -2.83268e-015 1.78906e-014
lhumerus -19.7726 7.55703 88.0608
lradius 13.5735
lwrist -4.62476
lhand -25.5649 -5.26646
lfingers 7.12502
lthumb 0.966011 24.7111
rfemur -13.1984 -1.43613 19.8398
rtibia 19.8985
rfoot -10.5951 0.602878
rtoes 17.8091
lfemur -11.2184 7.03029 -17.7302
ltibia 18.4402
lfoot -9.57901 3.31869
ltoes -2.79962
576
root 0.843799 17.7258 6.38365 4.64281 -0.342591 -1.86762
lowerback -1.94327 -0.56078 -0.0981383
upperback 1.40362 -0.787582 1.79209
thorax 2.55665 -0.411799 1.86291
lowerneck -13.2108 -1.02611 -2.38677
upperneck 18.9315 -1.03523 0.672493
head 8.05687 -0.596578 0.50834
rclavicle 6.68413e-015 1.11319e-014
rhumerus -24.5102 -19.169 -81.287
rradius 22.2865
rwrist 36.2661
rhand -19.9262 -27.1904
rfingers 7.12502
rthumb 6.41108 -57.0734
lclavicle 6.68413e-015 1.11319e-014
lhumerus -19.72 7.42551 88.1287
lradius 13.6461
lwrist -4.44258
lhand -25.5309 -5.14566
lfingers 7.12502
lthumb 0.998789 24.8317
rfemur -13.1982 -1.43987 19.8282
rtibia 19.9131
rfoot -10.5968 0.617622
rtoes 17.7966
lfemur -11.2025 7.02172 -17.7411
ltibia 18.4374
lfoot -9.57318 3.33955
ltoes -2.7848
577
root 0.84483 17.7254 6.38301 4.632 -0.360131 -1.86243
lowerback -1.94614 -0.564327 -0.106808
upperback 1.40369 -0.791951 1.78666
thorax 2.55852 -0.414091 1.86198
lowerneck -13.2224 -1.0201 -2.37812
upperneck 18.964 -1.02864 0.672426
head 8.06962 -0.592999 0.507556
rclavicle -8.44835e-015 -1.13307e-014
rhumerus -24.4745 -19.017 -81.3735
rradius 22.3717
rwrist 36.1109
rhand -19.9358 -27.1859
rfingers 7.12502
rthumb 6.4018 -57.0692
lclavicle -8.44835e-015 -1.13307e-014
lhumerus -19.6641 7.31845 88.1856
lradius 13.6935
lwrist -4.31348
lhand -25.536 -5.16041
lfingers 7.12502
lthumb 0.993902 24.817
rfemur -13.1969 -1.44086 19.819
rtibia 19.9233
rfoot -10.5973 0.631689
rtoes 17.7931
lfemur -11.1883 7.01236 -17.7495
ltibia 18.4355
lfoot -9.5679 3.36166
ltoes -2.77865
578
root 0.845839 17.7251 6.38251 4.62281 -0.37885 -1.85989
lowerback -1.95195 -0.567199 -0.113358
upperback 1.4043 -0.795537 1.78196
thorax 2.56256 -0.415974 1.86061
lowerneck -13.2271 -1.01509 -2.37131
upperneck 18.9891 -1.02352 0.673868
head 8.07872 -0.590074 0.507444
rclavicle -3.42904e-015 1.05356e-014
rhumerus -24.4383 -18.8689 -81.4583
rradius 22.4553
rwrist 35.9623
rhand -19.9467 -27.1755
rfingers 7.12502
rthumb 6.39131 -57.059
lclavicle -3.42904e-015 1.05356e-014
lhumerus -19.6079 7.23566 88.2339
lradius 13.7231
lwrist -4.22869
lhand -25.5692 -5.27979
lfingers 7.12502
lthumb 0.961823 24.6978
rfemur -13.1942 -1.43866 19.8127
rtibia 19.9283
rfoot -10.5972 0.645036
rtoes 17.7965
lfemur -11.1756 7.00337 -17.7548
ltibia 18.4344
lfoot -9.56369 3.38496
ltoes -2.77865
579
root 0.846732 17.725 6.38212 4.61486 -0.399247 -1.86306
lowerback -1.96074 -0.569109 -0.115622
upperback 1.40611 -0.798057 1.77901
thorax 2.56945 -0.417281 1.85866
lowerneck -13.225 -1.01081 -2.37019
upperneck 19.0071 -1.01927 0.679856
head 8.08429 -0.587498 0.50972
rclavicle -2.6339e-015 -1.35174e-014
rhumerus -24.4006 -18.7255 -81.5417
rradius 22.5374
rwrist 35.8206
rhand -19.9542 -27.1668
rfingers 7.12502
rthumb 6.38402 -57.0506
lclavicle -2.6339e-015 -1.35174e-014
lhumerus -19.5497 7.16852 88.2765
lradius 13.7466
lwrist -4.16439
lhand -25.6021 -5.40087
lfingers 7.12502
lthumb 0.930015 24.5768
rfemur -13.1902 -1.42923 19.8127
rtibia 19.9286
rfoot -10.5951 0.655135
rtoes 17.8032
lfemur -11.1643 6.99825 -17.7532
ltibia 18.4343
lfoot -9.56099 3.40682
ltoes -2.78443
580
root 0.847544 17.7248 6.38194 4.60704 -0.420581 -1.86961
lowerback -1.97229 -0.569806 -0.114904
upperback 1.40951 -0.799109 1.77654
thorax 2.57943 -0.417828 1.85555
lowerneck -13.2124 -1.00856 -2.377
upperneck 19.015 -1.01788 0.693316
head 8.08474 -0.586077 0.515521
rclavicle 1.30949e-014 -9.14409e-015
rhumerus -24.3608 -18.5917 -81.6224
rradius 22.6158
rwrist 35.6862
rhand -19.9588 -27.1563
rfingers 7.12502
rthumb 6.37957 -57.0402
lclavicle 1.30949e-014 -9.14409e-015
lhumerus -19.4939 7.10776 88.3155
lradius 13.769
lwrist -4.10741
lhand -25.6282 -5.50614
lfingers 7.12502
lthumb 0.904831 24.4717
rfemur -13.183 -1.41545 19.8167
rtibia 19.9246
rfoot -10.5924 0.661536
rtoes 17.8053
lfemur -11.1526 6.99614 -17.7476
ltibia 18.4347
lfoot -9.55882 3.42728
ltoes -2.793
